<svg xmlns="http://www.w3.org/2000/svg" viewBox="0 5 328.70001220703125 50.400001525878906" data-asc="0.881" width="328.70001220703125" height="50.400001525878906"><defs/><g><g fill="#ffffff"><g transform="translate(0, 0)"><path d="M2.60 44.05Q1.50 44.05 0.75 43.30Q0 42.55 0 41.45L0 7.60Q0 6.45 0.75 5.72Q1.50 5.00 2.60 5.00L14.55 5.00Q17.95 5.00 20.53 6.32Q23.10 7.65 24.58 10.00Q26.05 12.35 26.05 15.40Q26.05 17.85 24.73 19.82Q23.40 21.80 21.10 22.95Q24.40 23.75 26.40 26.10Q28.40 28.45 28.40 32.25Q28.40 35.70 26.78 38.35Q25.15 41 22.25 42.52Q19.35 44.05 15.60 44.05L2.60 44.05M5.20 39.25L15.60 39.25Q17.90 39.25 19.65 38.45Q21.40 37.65 22.40 36.10Q23.40 34.55 23.40 32.25Q23.40 30.10 22.40 28.70Q21.40 27.30 19.65 26.57Q17.90 25.85 15.60 25.85L5.20 25.85L5.20 39.25M5.20 21.05L14.55 21.05Q17.40 21.05 19.23 19.65Q21.05 18.25 21.05 15.40Q21.05 12.55 19.23 11.17Q17.40 9.80 14.55 9.80L5.20 9.80L5.20 21.05ZM48.05 44.25Q44 44.25 40.90 42.47Q37.80 40.70 36.02 37.57Q34.25 34.45 34.25 30.40Q34.25 26.30 36.02 23.17Q37.80 20.05 40.90 18.27Q44 16.50 48.05 16.50Q52.05 16.50 55.15 18.27Q58.25 20.05 60.02 23.17Q61.80 26.30 61.80 30.40Q61.80 34.45 60.05 37.57Q58.30 40.70 55.20 42.47Q52.10 44.25 48.05 44.25M48.05 39.75Q50.65 39.75 52.65 38.55Q54.65 37.35 55.77 35.25Q56.90 33.15 56.90 30.40Q56.90 27.65 55.77 25.52Q54.65 23.40 52.65 22.20Q50.65 21.00 48.05 21.00Q45.45 21.00 43.45 22.20Q41.45 23.40 40.30 25.52Q39.15 27.65 39.15 30.40Q39.15 33.15 40.30 35.25Q41.45 37.35 43.45 38.55Q45.45 39.75 48.05 39.75ZM81.80 44.25Q77.75 44.25 74.65 42.47Q71.55 40.70 69.78 37.57Q68 34.45 68 30.40Q68 26.30 69.78 23.17Q71.55 20.05 74.65 18.27Q77.75 16.50 81.80 16.50Q85.80 16.50 88.90 18.27Q92 20.05 93.78 23.17Q95.55 26.30 95.55 30.40Q95.55 34.45 93.80 37.57Q92.05 40.70 88.95 42.47Q85.85 44.25 81.80 44.25M81.80 39.75Q84.40 39.75 86.40 38.55Q88.40 37.35 89.53 35.25Q90.65 33.15 90.65 30.40Q90.65 27.65 89.53 25.52Q88.40 23.40 86.40 22.20Q84.40 21.00 81.80 21.00Q79.20 21.00 77.20 22.20Q75.20 23.40 74.05 25.52Q72.90 27.65 72.90 30.40Q72.90 33.15 74.05 35.25Q75.20 37.35 77.20 38.55Q79.20 39.75 81.80 39.75ZM107.95 34.05L104.85 30.65L120.20 16.95Q120.95 16.25 121.88 16.30Q122.80 16.35 123.45 17.10Q124.15 17.85 124.10 18.75Q124.05 19.65 123.30 20.35L107.95 34.05M105.60 44.05Q104.50 44.05 103.83 43.38Q103.15 42.70 103.15 41.60L103.15 7.45Q103.15 6.35 103.83 5.67Q104.50 5.00 105.60 5.00Q106.70 5.00 107.38 5.67Q108.05 6.35 108.05 7.45L108.05 41.60Q108.05 42.70 107.38 43.38Q106.70 44.05 105.60 44.05M123.45 43.80Q122.65 44.45 121.68 44.38Q120.70 44.30 120.05 43.50L109.90 30.95L113.40 27.65L123.80 40.45Q124.45 41.25 124.38 42.17Q124.30 43.10 123.45 43.80ZM134.65 44.05Q133.55 44.05 132.83 43.32Q132.10 42.60 132.10 41.50L132.10 19.25Q132.10 18.10 132.83 17.40Q133.55 16.70 134.65 16.70Q135.80 16.70 136.50 17.40Q137.20 18.10 137.20 19.25L137.20 41.50Q137.20 42.60 136.50 43.32Q135.80 44.05 134.65 44.05M134.65 12.25Q133.30 12.25 132.33 11.27Q131.35 10.30 131.35 8.95Q131.35 7.60 132.33 6.62Q133.30 5.65 134.65 5.65Q136 5.65 136.98 6.62Q137.95 7.60 137.95 8.95Q137.95 10.30 136.98 11.27Q136 12.25 134.65 12.25ZM169.80 44.10Q168.70 44.10 167.98 43.38Q167.25 42.65 167.25 41.55L167.25 29.25Q167.25 26.40 166.20 24.60Q165.15 22.80 163.38 21.92Q161.60 21.05 159.30 21.05Q157.20 21.05 155.50 21.90Q153.80 22.75 152.80 24.17Q151.80 25.60 151.80 27.45L148.65 27.45Q148.65 24.30 150.18 21.82Q151.70 19.35 154.35 17.90Q157.00 16.45 160.30 16.45Q163.75 16.45 166.48 17.92Q169.20 19.40 170.78 22.25Q172.35 25.10 172.35 29.25L172.35 41.55Q172.35 42.65 171.63 43.38Q170.90 44.10 169.80 44.10M149.25 44.10Q148.15 44.10 147.43 43.38Q146.70 42.65 146.70 41.55L146.70 19.25Q146.70 18.10 147.43 17.40Q148.15 16.70 149.25 16.70Q150.40 16.70 151.10 17.40Q151.80 18.10 151.80 19.25L151.80 41.55Q151.80 42.65 151.10 43.38Q150.40 44.10 149.25 44.10ZM192.20 44.25Q188.45 44.25 185.58 42.47Q182.70 40.70 181.05 37.57Q179.40 34.45 179.40 30.40Q179.40 26.30 181.18 23.17Q182.95 20.05 186.05 18.27Q189.15 16.50 193.20 16.50Q197.20 16.50 200.30 18.27Q203.40 20.05 205.18 23.17Q206.95 26.30 206.95 30.40L204 30.40Q204 34.45 202.48 37.57Q200.95 40.70 198.30 42.47Q195.65 44.25 192.20 44.25M193.10 55.40Q189.55 55.40 186.45 54Q183.35 52.60 181.20 49.90Q180.55 49.05 180.73 48.15Q180.90 47.25 181.70 46.70Q182.60 46.10 183.58 46.30Q184.55 46.50 185.15 47.30Q186.50 49 188.55 49.95Q190.60 50.90 193.20 50.90Q195.60 50.90 197.63 49.75Q199.65 48.60 200.85 46.35Q202.05 44.10 202.05 40.85L202.05 33.75L203.70 29.35L206.95 30.40L206.95 41.20Q206.95 45.15 205.20 48.38Q203.45 51.60 200.33 53.50Q197.20 55.40 193.10 55.40M193.20 39.75Q195.80 39.75 197.80 38.55Q199.80 37.35 200.93 35.25Q202.05 33.15 202.05 30.40Q202.05 27.65 200.93 25.52Q199.80 23.40 197.80 22.20Q195.80 21.00 193.20 21.00Q190.60 21.00 188.60 22.20Q186.60 23.40 185.45 25.52Q184.30 27.65 184.30 30.40Q184.30 33.15 185.45 35.25Q186.60 37.35 188.60 38.55Q190.60 39.75 193.20 39.75ZM216 44.85Q214.60 44.85 213.58 43.82Q212.55 42.80 212.55 41.40Q212.55 39.95 213.58 38.92Q214.60 37.90 216 37.90Q217.45 37.90 218.45 38.92Q219.45 39.95 219.45 41.40Q219.45 42.80 218.45 43.82Q217.45 44.85 216 44.85ZM238.85 44.25Q234.85 44.25 231.73 42.42Q228.60 40.60 226.83 37.47Q225.05 34.35 225.05 30.40Q225.05 26.35 226.80 23.20Q228.55 20.05 231.60 18.27Q234.65 16.50 238.60 16.50Q241.55 16.50 244.00 17.62Q246.45 18.75 248.40 21.00Q249.10 21.80 248.90 22.65Q248.70 23.50 247.80 24.15Q247.10 24.65 246.25 24.47Q245.40 24.30 244.70 23.60Q242.25 21.00 238.60 21.00Q236.05 21.00 234.10 22.17Q232.15 23.35 231.05 25.45Q229.95 27.55 229.95 30.40Q229.95 33.10 231.08 35.20Q232.20 37.30 234.20 38.52Q236.20 39.75 238.85 39.75Q240.60 39.75 241.93 39.32Q243.25 38.90 244.35 38Q245.15 37.35 246.00 37.27Q246.85 37.20 247.50 37.75Q248.35 38.45 248.45 39.32Q248.55 40.20 247.85 40.90Q244.25 44.25 238.85 44.25ZM268.90 44.25Q264.85 44.25 261.75 42.47Q258.65 40.70 256.88 37.57Q255.10 34.45 255.10 30.40Q255.10 26.30 256.88 23.17Q258.65 20.05 261.75 18.27Q264.85 16.50 268.90 16.50Q272.90 16.50 276 18.27Q279.10 20.05 280.88 23.17Q282.65 26.30 282.65 30.40Q282.65 34.45 280.90 37.57Q279.15 40.70 276.05 42.47Q272.95 44.25 268.90 44.25M268.90 39.75Q271.50 39.75 273.50 38.55Q275.50 37.35 276.63 35.25Q277.75 33.15 277.75 30.40Q277.75 27.65 276.63 25.52Q275.50 23.40 273.50 22.20Q271.50 21.00 268.90 21.00Q266.30 21.00 264.30 22.20Q262.30 23.40 261.15 25.52Q260 27.65 260 30.40Q260 33.15 261.15 35.25Q262.30 37.35 264.30 38.55Q266.30 39.75 268.90 39.75ZM326.15 44.10Q325.05 44.10 324.32 43.38Q323.60 42.65 323.60 41.55L323.60 27.25Q323.60 24.10 322.05 22.57Q320.50 21.05 318 21.05Q315.40 21.05 313.73 22.85Q312.05 24.65 312.05 27.45L307.90 27.45Q307.90 24.20 309.30 21.72Q310.70 19.25 313.23 17.85Q315.75 16.45 319 16.45Q321.85 16.45 324.05 17.70Q326.25 18.95 327.48 21.37Q328.70 23.80 328.70 27.25L328.70 41.55Q328.70 42.65 328 43.38Q327.30 44.10 326.15 44.10M292.80 44.10Q291.70 44.10 290.98 43.38Q290.25 42.65 290.25 41.55L290.25 19.30Q290.25 18.15 290.98 17.45Q291.70 16.75 292.80 16.75Q293.95 16.75 294.65 17.45Q295.35 18.15 295.35 19.30L295.35 41.55Q295.35 42.65 294.65 43.38Q293.95 44.10 292.80 44.10M309.50 44.10Q308.40 44.10 307.68 43.38Q306.95 42.65 306.95 41.55L306.95 27.25Q306.95 24.10 305.40 22.57Q303.85 21.05 301.35 21.05Q298.75 21.05 297.05 22.85Q295.35 24.65 295.35 27.45L292.20 27.45Q292.20 24.20 293.50 21.72Q294.80 19.25 297.10 17.85Q299.40 16.45 302.35 16.45Q305.20 16.45 307.40 17.70Q309.60 18.95 310.82 21.37Q312.05 23.80 312.05 27.25L312.05 41.55Q312.05 42.65 311.35 43.38Q310.65 44.10 309.50 44.10Z"/></g></g></g></svg>